<svg width="48" height="48" viewBox="0 0 48 48" fill="none" xmlns="http://www.w3.org/2000/svg">
<g opacity="0.8">
<path d="M20.4 15L22.092 16.7811M25.9081 16.7811L27.6001 15M21.3001 19.8601V18.9127C21.2837 18.5288 21.3415 18.1454 21.4698 17.7856C21.5982 17.4258 21.7944 17.0971 22.0467 16.8194C22.2991 16.5416 22.6022 16.3206 22.9379 16.1696C23.2737 16.0185 23.635 15.9407 24.0001 15.9407C24.3652 15.9407 24.7265 16.0185 25.0622 16.1696C25.3979 16.3206 25.7011 16.5416 25.9534 16.8194C26.2057 17.0971 26.402 17.4258 26.5303 17.7856C26.6586 18.1454 26.7164 18.5288 26.7001 18.9127V19.8601M24 32.0526C21.03 32.0526 18.6 29.4947 18.6 26.3684V23.5263C18.6 22.5213 18.9793 21.5574 19.6544 20.8468C20.3295 20.1361 21.2452 19.7368 22.2 19.7368H25.8C26.7548 19.7368 27.6705 20.1361 28.3456 20.8468C29.0207 21.5574 29.4 22.5213 29.4 23.5263V26.3684C29.4 29.4947 26.97 32.0526 24 32.0526ZM24 32.0526V23.5263M19.077 21.6316C17.34 21.4421 15.9 19.8316 15.9 17.8421M18.6 25.4211H15M15.9 33C15.9 31.0105 17.43 29.3053 19.32 29.2105M32.073 17.8421C32.073 19.8316 30.633 21.4421 28.923 21.6316M33 25.4211H29.4M28.68 29.2105C30.57 29.3053 32.1 31.0105 32.1 33" stroke="black" stroke-width="1.5" stroke-linecap="round" stroke-linejoin="round"/>
</g>
</svg>
